<mxfile host="app.diagrams.net" modified="2021-02-19T08:06:07.059Z" agent="5.0 (Windows NT 10.0; Win64; x64) AppleWebKit/537.36 (KHTML, like Gecko) Chrome/59.0.3071.115 Safari/537.36" etag="YVVNmwaMBoQ2FYQVEwbp" version="14.4.2" type="github">
  <diagram id="kZzbTKUX2tfXPhpkxv7H" name="Page-1">
    <mxGraphModel dx="1038" dy="623" grid="1" gridSize="10" guides="1" tooltips="1" connect="1" arrows="1" fold="1" page="1" pageScale="1" pageWidth="827" pageHeight="1169" math="0" shadow="0">
      <root>
        <mxCell id="0" />
        <mxCell id="1" parent="0" />
        <mxCell id="jfM0M3CVB-0s5Pou7_fO-4" value="" style="group" vertex="1" connectable="0" parent="1">
          <mxGeometry x="80" y="90" width="120" height="90" as="geometry" />
        </mxCell>
        <mxCell id="jfM0M3CVB-0s5Pou7_fO-2" value="&lt;font style=&quot;font-size: 18px&quot;&gt;28*28&lt;/font&gt;" style="rounded=0;whiteSpace=wrap;html=1;" vertex="1" parent="jfM0M3CVB-0s5Pou7_fO-4">
          <mxGeometry y="30" width="120" height="60" as="geometry" />
        </mxCell>
        <mxCell id="jfM0M3CVB-0s5Pou7_fO-3" value="&lt;b&gt;&lt;font style=&quot;font-size: 18px&quot;&gt;输入&lt;/font&gt;&lt;/b&gt;" style="text;html=1;strokeColor=none;fillColor=none;align=center;verticalAlign=middle;whiteSpace=wrap;rounded=0;" vertex="1" parent="jfM0M3CVB-0s5Pou7_fO-4">
          <mxGeometry x="40" width="40" height="20" as="geometry" />
        </mxCell>
        <mxCell id="jfM0M3CVB-0s5Pou7_fO-6" value="" style="group" vertex="1" connectable="0" parent="1">
          <mxGeometry x="240" y="90" width="120" height="90" as="geometry" />
        </mxCell>
        <mxCell id="jfM0M3CVB-0s5Pou7_fO-7" value="&lt;font style=&quot;font-size: 18px&quot;&gt;32@28*28&lt;/font&gt;" style="rounded=0;whiteSpace=wrap;html=1;" vertex="1" parent="jfM0M3CVB-0s5Pou7_fO-6">
          <mxGeometry y="30" width="120" height="60" as="geometry" />
        </mxCell>
        <mxCell id="jfM0M3CVB-0s5Pou7_fO-8" value="&lt;b&gt;&lt;font style=&quot;font-size: 18px&quot;&gt;C1&lt;/font&gt;&lt;/b&gt;" style="text;html=1;strokeColor=none;fillColor=none;align=center;verticalAlign=middle;whiteSpace=wrap;rounded=0;" vertex="1" parent="jfM0M3CVB-0s5Pou7_fO-6">
          <mxGeometry x="40" width="40" height="20" as="geometry" />
        </mxCell>
        <mxCell id="jfM0M3CVB-0s5Pou7_fO-9" value="" style="group" vertex="1" connectable="0" parent="1">
          <mxGeometry x="390" y="90" width="120" height="90" as="geometry" />
        </mxCell>
        <mxCell id="jfM0M3CVB-0s5Pou7_fO-10" value="&lt;span style=&quot;font-size: 18px&quot;&gt;32@14*14&lt;/span&gt;" style="rounded=0;whiteSpace=wrap;html=1;" vertex="1" parent="jfM0M3CVB-0s5Pou7_fO-9">
          <mxGeometry y="30" width="120" height="60" as="geometry" />
        </mxCell>
        <mxCell id="jfM0M3CVB-0s5Pou7_fO-11" value="&lt;b&gt;&lt;font style=&quot;font-size: 18px&quot;&gt;S2&lt;/font&gt;&lt;/b&gt;" style="text;html=1;strokeColor=none;fillColor=none;align=center;verticalAlign=middle;whiteSpace=wrap;rounded=0;" vertex="1" parent="jfM0M3CVB-0s5Pou7_fO-9">
          <mxGeometry x="40" width="40" height="20" as="geometry" />
        </mxCell>
        <mxCell id="jfM0M3CVB-0s5Pou7_fO-12" value="" style="group" vertex="1" connectable="0" parent="1">
          <mxGeometry x="550" y="90" width="120" height="90" as="geometry" />
        </mxCell>
        <mxCell id="jfM0M3CVB-0s5Pou7_fO-13" value="&lt;span style=&quot;font-size: 18px&quot;&gt;64@14*14&lt;/span&gt;" style="rounded=0;whiteSpace=wrap;html=1;" vertex="1" parent="jfM0M3CVB-0s5Pou7_fO-12">
          <mxGeometry y="30" width="120" height="60" as="geometry" />
        </mxCell>
        <mxCell id="jfM0M3CVB-0s5Pou7_fO-14" value="&lt;b&gt;&lt;font style=&quot;font-size: 18px&quot;&gt;C3&lt;/font&gt;&lt;/b&gt;" style="text;html=1;strokeColor=none;fillColor=none;align=center;verticalAlign=middle;whiteSpace=wrap;rounded=0;" vertex="1" parent="jfM0M3CVB-0s5Pou7_fO-12">
          <mxGeometry x="40" width="40" height="20" as="geometry" />
        </mxCell>
        <mxCell id="jfM0M3CVB-0s5Pou7_fO-15" value="" style="group" vertex="1" connectable="0" parent="1">
          <mxGeometry x="710" y="90" width="120" height="90" as="geometry" />
        </mxCell>
        <mxCell id="jfM0M3CVB-0s5Pou7_fO-16" value="&lt;span style=&quot;font-size: 18px&quot;&gt;64@7*7&lt;/span&gt;" style="rounded=0;whiteSpace=wrap;html=1;" vertex="1" parent="jfM0M3CVB-0s5Pou7_fO-15">
          <mxGeometry y="30" width="120" height="60" as="geometry" />
        </mxCell>
        <mxCell id="jfM0M3CVB-0s5Pou7_fO-17" value="&lt;b&gt;&lt;font style=&quot;font-size: 18px&quot;&gt;S4&lt;/font&gt;&lt;/b&gt;" style="text;html=1;strokeColor=none;fillColor=none;align=center;verticalAlign=middle;whiteSpace=wrap;rounded=0;" vertex="1" parent="jfM0M3CVB-0s5Pou7_fO-15">
          <mxGeometry x="40" width="40" height="20" as="geometry" />
        </mxCell>
        <mxCell id="jfM0M3CVB-0s5Pou7_fO-18" value="" style="group" vertex="1" connectable="0" parent="1">
          <mxGeometry x="870" y="90" width="120" height="90" as="geometry" />
        </mxCell>
        <mxCell id="jfM0M3CVB-0s5Pou7_fO-19" value="&lt;span style=&quot;font-size: 18px&quot;&gt;256&lt;/span&gt;" style="rounded=0;whiteSpace=wrap;html=1;" vertex="1" parent="jfM0M3CVB-0s5Pou7_fO-18">
          <mxGeometry y="30" width="120" height="60" as="geometry" />
        </mxCell>
        <mxCell id="jfM0M3CVB-0s5Pou7_fO-20" value="&lt;span style=&quot;font-size: 18px&quot;&gt;&lt;b&gt;F5&lt;/b&gt;&lt;/span&gt;" style="text;html=1;strokeColor=none;fillColor=none;align=center;verticalAlign=middle;whiteSpace=wrap;rounded=0;" vertex="1" parent="jfM0M3CVB-0s5Pou7_fO-18">
          <mxGeometry x="40" width="40" height="20" as="geometry" />
        </mxCell>
        <mxCell id="jfM0M3CVB-0s5Pou7_fO-21" value="" style="group" vertex="1" connectable="0" parent="1">
          <mxGeometry x="1030" y="90" width="120" height="90" as="geometry" />
        </mxCell>
        <mxCell id="jfM0M3CVB-0s5Pou7_fO-22" value="&lt;span style=&quot;font-size: 18px&quot;&gt;10&lt;/span&gt;" style="rounded=0;whiteSpace=wrap;html=1;" vertex="1" parent="jfM0M3CVB-0s5Pou7_fO-21">
          <mxGeometry y="30" width="120" height="60" as="geometry" />
        </mxCell>
        <mxCell id="jfM0M3CVB-0s5Pou7_fO-23" value="&lt;span style=&quot;font-size: 18px&quot;&gt;&lt;b&gt;输出&lt;/b&gt;&lt;/span&gt;" style="text;html=1;strokeColor=none;fillColor=none;align=center;verticalAlign=middle;whiteSpace=wrap;rounded=0;" vertex="1" parent="jfM0M3CVB-0s5Pou7_fO-21">
          <mxGeometry x="40" width="40" height="20" as="geometry" />
        </mxCell>
        <mxCell id="jfM0M3CVB-0s5Pou7_fO-24" value="" style="endArrow=classic;html=1;entryX=0;entryY=0.5;entryDx=0;entryDy=0;exitX=1;exitY=0.5;exitDx=0;exitDy=0;" edge="1" parent="1" source="jfM0M3CVB-0s5Pou7_fO-2" target="jfM0M3CVB-0s5Pou7_fO-7">
          <mxGeometry width="50" height="50" relative="1" as="geometry">
            <mxPoint x="150" y="250" as="sourcePoint" />
            <mxPoint x="200" y="200" as="targetPoint" />
          </mxGeometry>
        </mxCell>
        <mxCell id="jfM0M3CVB-0s5Pou7_fO-25" value="" style="endArrow=classic;html=1;entryX=0;entryY=0.5;entryDx=0;entryDy=0;" edge="1" parent="1" target="jfM0M3CVB-0s5Pou7_fO-10">
          <mxGeometry width="50" height="50" relative="1" as="geometry">
            <mxPoint x="360" y="150" as="sourcePoint" />
            <mxPoint x="250" y="160" as="targetPoint" />
          </mxGeometry>
        </mxCell>
        <mxCell id="jfM0M3CVB-0s5Pou7_fO-26" value="" style="endArrow=classic;html=1;entryX=0;entryY=0.5;entryDx=0;entryDy=0;exitX=1;exitY=0.5;exitDx=0;exitDy=0;" edge="1" parent="1" source="jfM0M3CVB-0s5Pou7_fO-10" target="jfM0M3CVB-0s5Pou7_fO-13">
          <mxGeometry width="50" height="50" relative="1" as="geometry">
            <mxPoint x="520" y="270" as="sourcePoint" />
            <mxPoint x="570" y="220" as="targetPoint" />
          </mxGeometry>
        </mxCell>
        <mxCell id="jfM0M3CVB-0s5Pou7_fO-27" value="" style="endArrow=classic;html=1;entryX=0;entryY=0.5;entryDx=0;entryDy=0;exitX=1;exitY=0.5;exitDx=0;exitDy=0;" edge="1" parent="1" source="jfM0M3CVB-0s5Pou7_fO-13" target="jfM0M3CVB-0s5Pou7_fO-16">
          <mxGeometry width="50" height="50" relative="1" as="geometry">
            <mxPoint x="700" y="280" as="sourcePoint" />
            <mxPoint x="750" y="230" as="targetPoint" />
          </mxGeometry>
        </mxCell>
        <mxCell id="jfM0M3CVB-0s5Pou7_fO-28" value="" style="endArrow=classic;html=1;entryX=0;entryY=0.5;entryDx=0;entryDy=0;exitX=1;exitY=0.5;exitDx=0;exitDy=0;" edge="1" parent="1" source="jfM0M3CVB-0s5Pou7_fO-16" target="jfM0M3CVB-0s5Pou7_fO-19">
          <mxGeometry width="50" height="50" relative="1" as="geometry">
            <mxPoint x="880" y="280" as="sourcePoint" />
            <mxPoint x="930" y="230" as="targetPoint" />
          </mxGeometry>
        </mxCell>
        <mxCell id="jfM0M3CVB-0s5Pou7_fO-29" value="" style="endArrow=classic;html=1;entryX=0;entryY=0.5;entryDx=0;entryDy=0;exitX=1;exitY=0.5;exitDx=0;exitDy=0;" edge="1" parent="1" source="jfM0M3CVB-0s5Pou7_fO-19" target="jfM0M3CVB-0s5Pou7_fO-22">
          <mxGeometry width="50" height="50" relative="1" as="geometry">
            <mxPoint x="970" y="270" as="sourcePoint" />
            <mxPoint x="1020" y="220" as="targetPoint" />
          </mxGeometry>
        </mxCell>
      </root>
    </mxGraphModel>
  </diagram>
</mxfile>
